<svg xmlns="http://www.w3.org/2000/svg" viewBox="0 0 350 350">
  <rect fill="white" width="350" height="350"></rect>
  <path fill="#333"
    d="M30,30h10v10h-10zM40,30h10v10h-10zM50,30h10v10h-10zM60,30h10v10h-10zM70,30h10v10h-10zM80,30h10v10h-10zM90,30h10v10h-10zM110,30h10v10h-10zM120,30h10v10h-10zM150,30h10v10h-10zM160,30h10v10h-10zM170,30h10v10h-10zM180,30h10v10h-10zM200,30h10v10h-10zM210,30h10v10h-10zM220,30h10v10h-10zM230,30h10v10h-10zM250,30h10v10h-10zM260,30h10v10h-10zM270,30h10v10h-10zM280,30h10v10h-10zM290,30h10v10h-10zM300,30h10v10h-10zM310,30h10v10h-10zM30,40h10v10h-10zM90,40h10v10h-10zM110,40h10v10h-10zM120,40h10v10h-10zM160,40h10v10h-10zM190,40h10v10h-10zM210,40h10v10h-10zM250,40h10v10h-10zM310,40h10v10h-10zM30,50h10v10h-10zM50,50h10v10h-10zM60,50h10v10h-10zM70,50h10v10h-10zM90,50h10v10h-10zM130,50h10v10h-10zM190,50h10v10h-10zM230,50h10v10h-10zM250,50h10v10h-10zM270,50h10v10h-10zM280,50h10v10h-10zM290,50h10v10h-10zM310,50h10v10h-10zM30,60h10v10h-10zM50,60h10v10h-10zM60,60h10v10h-10zM70,60h10v10h-10zM90,60h10v10h-10zM110,60h10v10h-10zM120,60h10v10h-10zM130,60h10v10h-10zM150,60h10v10h-10zM170,60h10v10h-10zM180,60h10v10h-10zM200,60h10v10h-10zM220,60h10v10h-10zM250,60h10v10h-10zM270,60h10v10h-10zM280,60h10v10h-10zM290,60h10v10h-10zM310,60h10v10h-10zM30,70h10v10h-10zM50,70h10v10h-10zM60,70h10v10h-10zM70,70h10v10h-10zM90,70h10v10h-10zM130,70h10v10h-10zM140,70h10v10h-10zM150,70h10v10h-10zM170,70h10v10h-10zM190,70h10v10h-10zM200,70h10v10h-10zM220,70h10v10h-10zM250,70h10v10h-10zM270,70h10v10h-10zM280,70h10v10h-10zM290,70h10v10h-10zM310,70h10v10h-10zM30,80h10v10h-10zM90,80h10v10h-10zM120,80h10v10h-10zM160,80h10v10h-10zM180,80h10v10h-10zM190,80h10v10h-10zM210,80h10v10h-10zM220,80h10v10h-10zM250,80h10v10h-10zM310,80h10v10h-10zM30,90h10v10h-10zM40,90h10v10h-10zM50,90h10v10h-10zM60,90h10v10h-10zM70,90h10v10h-10zM80,90h10v10h-10zM90,90h10v10h-10zM110,90h10v10h-10zM130,90h10v10h-10zM150,90h10v10h-10zM170,90h10v10h-10zM190,90h10v10h-10zM210,90h10v10h-10zM230,90h10v10h-10zM250,90h10v10h-10zM260,90h10v10h-10zM270,90h10v10h-10zM280,90h10v10h-10zM290,90h10v10h-10zM300,90h10v10h-10zM310,90h10v10h-10zM110,100h10v10h-10zM120,100h10v10h-10zM180,100h10v10h-10zM190,100h10v10h-10zM200,100h10v10h-10zM210,100h10v10h-10zM30,110h10v10h-10zM50,110h10v10h-10zM60,110h10v10h-10zM80,110h10v10h-10zM90,110h10v10h-10zM100,110h10v10h-10zM140,110h10v10h-10zM150,110h10v10h-10zM160,110h10v10h-10zM180,110h10v10h-10zM200,110h10v10h-10zM220,110h10v10h-10zM230,110h10v10h-10zM250,110h10v10h-10zM280,110h10v10h-10zM300,110h10v10h-10zM310,110h10v10h-10zM120,120h10v10h-10zM150,120h10v10h-10zM160,120h10v10h-10zM170,120h10v10h-10zM180,120h10v10h-10zM200,120h10v10h-10zM210,120h10v10h-10zM220,120h10v10h-10zM230,120h10v10h-10zM250,120h10v10h-10zM260,120h10v10h-10zM270,120h10v10h-10zM310,120h10v10h-10zM30,130h10v10h-10zM40,130h10v10h-10zM60,130h10v10h-10zM80,130h10v10h-10zM90,130h10v10h-10zM100,130h10v10h-10zM120,130h10v10h-10zM130,130h10v10h-10zM140,130h10v10h-10zM150,130h10v10h-10zM160,130h10v10h-10zM190,130h10v10h-10zM210,130h10v10h-10zM270,130h10v10h-10zM290,130h10v10h-10zM300,130h10v10h-10zM30,140h10v10h-10zM40,140h10v10h-10zM50,140h10v10h-10zM70,140h10v10h-10zM80,140h10v10h-10zM100,140h10v10h-10zM140,140h10v10h-10zM190,140h10v10h-10zM220,140h10v10h-10zM260,140h10v10h-10zM270,140h10v10h-10zM310,140h10v10h-10zM60,150h10v10h-10zM80,150h10v10h-10zM90,150h10v10h-10zM100,150h10v10h-10zM150,150h10v10h-10zM170,150h10v10h-10zM180,150h10v10h-10zM200,150h10v10h-10zM240,150h10v10h-10zM280,150h10v10h-10zM290,150h10v10h-10zM40,160h10v10h-10zM50,160h10v10h-10zM60,160h10v10h-10zM100,160h10v10h-10zM110,160h10v10h-10zM120,160h10v10h-10zM140,160h10v10h-10zM150,160h10v10h-10zM170,160h10v10h-10zM190,160h10v10h-10zM200,160h10v10h-10zM220,160h10v10h-10zM250,160h10v10h-10zM290,160h10v10h-10zM300,160h10v10h-10zM310,160h10v10h-10zM30,170h10v10h-10zM40,170h10v10h-10zM50,170h10v10h-10zM60,170h10v10h-10zM90,170h10v10h-10zM110,170h10v10h-10zM160,170h10v10h-10zM180,170h10v10h-10zM190,170h10v10h-10zM200,170h10v10h-10zM220,170h10v10h-10zM230,170h10v10h-10zM240,170h10v10h-10zM290,170h10v10h-10zM300,170h10v10h-10zM310,170h10v10h-10zM30,180h10v10h-10zM40,180h10v10h-10zM70,180h10v10h-10zM150,180h10v10h-10zM170,180h10v10h-10zM190,180h10v10h-10zM230,180h10v10h-10zM240,180h10v10h-10zM250,180h10v10h-10zM260,180h10v10h-10zM270,180h10v10h-10zM300,180h10v10h-10zM50,190h10v10h-10zM90,190h10v10h-10zM100,190h10v10h-10zM120,190h10v10h-10zM140,190h10v10h-10zM150,190h10v10h-10zM170,190h10v10h-10zM180,190h10v10h-10zM210,190h10v10h-10zM220,190h10v10h-10zM230,190h10v10h-10zM240,190h10v10h-10zM270,190h10v10h-10zM280,190h10v10h-10zM300,190h10v10h-10zM50,200h10v10h-10zM60,200h10v10h-10zM70,200h10v10h-10zM80,200h10v10h-10zM100,200h10v10h-10zM110,200h10v10h-10zM120,200h10v10h-10zM140,200h10v10h-10zM150,200h10v10h-10zM170,200h10v10h-10zM190,200h10v10h-10zM230,200h10v10h-10zM260,200h10v10h-10zM280,200h10v10h-10zM290,200h10v10h-10zM300,200h10v10h-10zM30,210h10v10h-10zM50,210h10v10h-10zM60,210h10v10h-10zM90,210h10v10h-10zM100,210h10v10h-10zM130,210h10v10h-10zM140,210h10v10h-10zM160,210h10v10h-10zM170,210h10v10h-10zM180,210h10v10h-10zM190,210h10v10h-10zM230,210h10v10h-10zM240,210h10v10h-10zM260,210h10v10h-10zM270,210h10v10h-10zM290,210h10v10h-10zM50,220h10v10h-10zM70,220h10v10h-10zM80,220h10v10h-10zM150,220h10v10h-10zM160,220h10v10h-10zM170,220h10v10h-10zM180,220h10v10h-10zM190,220h10v10h-10zM200,220h10v10h-10zM210,220h10v10h-10zM220,220h10v10h-10zM240,220h10v10h-10zM250,220h10v10h-10zM290,220h10v10h-10zM40,230h10v10h-10zM60,230h10v10h-10zM90,230h10v10h-10zM100,230h10v10h-10zM110,230h10v10h-10zM130,230h10v10h-10zM140,230h10v10h-10zM160,230h10v10h-10zM170,230h10v10h-10zM180,230h10v10h-10zM190,230h10v10h-10zM200,230h10v10h-10zM210,230h10v10h-10zM230,230h10v10h-10zM240,230h10v10h-10zM250,230h10v10h-10zM260,230h10v10h-10zM270,230h10v10h-10zM280,230h10v10h-10zM290,230h10v10h-10zM110,240h10v10h-10zM130,240h10v10h-10zM140,240h10v10h-10zM200,240h10v10h-10zM210,240h10v10h-10zM230,240h10v10h-10zM270,240h10v10h-10zM280,240h10v10h-10zM290,240h10v10h-10zM300,240h10v10h-10zM310,240h10v10h-10zM30,250h10v10h-10zM40,250h10v10h-10zM50,250h10v10h-10zM60,250h10v10h-10zM70,250h10v10h-10zM80,250h10v10h-10zM90,250h10v10h-10zM110,250h10v10h-10zM120,250h10v10h-10zM130,250h10v10h-10zM150,250h10v10h-10zM170,250h10v10h-10zM210,250h10v10h-10zM220,250h10v10h-10zM230,250h10v10h-10zM250,250h10v10h-10zM270,250h10v10h-10zM280,250h10v10h-10zM300,250h10v10h-10zM30,260h10v10h-10zM90,260h10v10h-10zM110,260h10v10h-10zM130,260h10v10h-10zM140,260h10v10h-10zM160,260h10v10h-10zM170,260h10v10h-10zM180,260h10v10h-10zM190,260h10v10h-10zM230,260h10v10h-10zM270,260h10v10h-10zM280,260h10v10h-10zM310,260h10v10h-10zM30,270h10v10h-10zM50,270h10v10h-10zM60,270h10v10h-10zM70,270h10v10h-10zM90,270h10v10h-10zM130,270h10v10h-10zM150,270h10v10h-10zM180,270h10v10h-10zM190,270h10v10h-10zM200,270h10v10h-10zM230,270h10v10h-10zM240,270h10v10h-10zM250,270h10v10h-10zM260,270h10v10h-10zM270,270h10v10h-10zM290,270h10v10h-10zM300,270h10v10h-10zM30,280h10v10h-10zM50,280h10v10h-10zM60,280h10v10h-10zM70,280h10v10h-10zM90,280h10v10h-10zM110,280h10v10h-10zM150,280h10v10h-10zM180,280h10v10h-10zM190,280h10v10h-10zM200,280h10v10h-10zM210,280h10v10h-10zM240,280h10v10h-10zM270,280h10v10h-10zM280,280h10v10h-10zM310,280h10v10h-10zM30,290h10v10h-10zM50,290h10v10h-10zM60,290h10v10h-10zM70,290h10v10h-10zM90,290h10v10h-10zM110,290h10v10h-10zM120,290h10v10h-10zM130,290h10v10h-10zM140,290h10v10h-10zM150,290h10v10h-10zM160,290h10v10h-10zM170,290h10v10h-10zM210,290h10v10h-10zM220,290h10v10h-10zM260,290h10v10h-10zM290,290h10v10h-10zM310,290h10v10h-10zM30,300h10v10h-10zM90,300h10v10h-10zM160,300h10v10h-10zM170,300h10v10h-10zM180,300h10v10h-10zM190,300h10v10h-10zM210,300h10v10h-10zM220,300h10v10h-10zM230,300h10v10h-10zM240,300h10v10h-10zM250,300h10v10h-10zM270,300h10v10h-10zM280,300h10v10h-10zM300,300h10v10h-10zM30,310h10v10h-10zM40,310h10v10h-10zM50,310h10v10h-10zM60,310h10v10h-10zM70,310h10v10h-10zM80,310h10v10h-10zM90,310h10v10h-10zM110,310h10v10h-10zM120,310h10v10h-10zM210,310h10v10h-10zM220,310h10v10h-10zM230,310h10v10h-10zM280,310h10v10h-10zM300,310h10v10h-10z">
  </path>
</svg>